<?xml version="1.0" encoding="UTF-8"?>
<svg width="114px" height="52px" viewBox="0 0 114 52" version="1.1" xmlns="http://www.w3.org/2000/svg" xmlns:xlink="http://www.w3.org/1999/xlink">
    <!-- Generator: Sketch 46.2 (44496) - http://www.bohemiancoding.com/sketch -->
    <title>logo</title>
    <desc>Created with Sketch.</desc>
    <defs>
        <polygon id="path-1" points="0.0488571429 30.3297297 0.0488571429 0.204432432 113.309486 0.204432432 113.309486 15.2670811 113.309486 30.3297297"></polygon>
        <polygon id="path-3" points="0.0488571429 30.3297297 0.0488571429 0.204432432 113.309486 0.204432432 113.309486 15.2670811 113.309486 30.3297297"></polygon>
    </defs>
    <g id="Page-1" stroke="none" stroke-width="1" fill="none" fill-rule="evenodd">
        <g id="Desktop-1280x900-(2)" transform="translate(-201.000000, -50.000000)">
            <g id="logo" transform="translate(201.000000, 50.000000)">
                <path d="M34.8574007,52 C31.5506804,52 29,49.3813898 29,45.5358206 L29,45.4888833 C29,41.9257617 31.3139406,39 34.5763677,39 C38.2061233,39 40,42.2567936 40,45.1347945 C40,45.9384937 39.4364066,46.5058593 38.7681894,46.5058593 L31.6140655,46.5058593 C31.8966259,48.534047 33.212441,49.6663077 34.8994029,49.6663077 C35.9990975,49.6663077 36.8651069,49.2397542 37.6012913,48.5793374 C37.7945015,48.414645 37.9678562,48.3199468 38.2679811,48.3199468 C38.8529575,48.3199468 39.3081089,48.8181415 39.3081089,49.4769114 C39.3081089,49.8293533 39.1576645,50.1373282 38.9606359,50.3497815 C37.9258539,51.365934 36.6291308,52 34.8558734,52 L34.8574007,52 Z M37.448556,44.6168366 C37.278256,42.7755748 36.2831852,41.3378096 34.554221,41.3378096 C32.9558456,41.3378096 31.8317134,42.6825236 31.5942099,44.6168366 L37.4493196,44.6168366 L37.448556,44.6168366 L37.448556,44.6168366 Z" id="Fill-1" fill="#0A0B09"></path>
                <path d="M55,50.4066623 C55,51.2260691 54.3563107,51.8551511 53.5721036,51.8551511 C52.7626537,51.8551511 52.1189644,51.2260691 52.1189644,50.4066623 L52.1189644,49.6116777 C51.1933981,50.9388977 49.8807767,52 47.8361165,52 C44.8827184,52 42,49.6116777 42,45.3891644 L42,45.3411622 C42,41.119491 44.8330744,38.7286423 47.8352751,38.7286423 C49.905178,38.7286423 51.2135922,39.7686909 52.118123,40.9754842 L52.118123,35.4484888 C52.118123,34.6282399 52.7626537,34 53.5460194,34 C54.3563107,34 55,34.6282399 55,35.4484888 L55,50.4075044 L55,50.4066623 Z M44.9045955,45.34032 L44.9045955,45.3891644 C44.9045955,47.8507533 46.5706149,49.4668289 48.5227184,49.4668289 C50.4512621,49.4668289 52.1644013,47.8246468 52.1644013,45.3891644 L52.1644013,45.3411622 C52.1644013,42.8787312 50.4512621,41.265182 48.5227184,41.265182 C46.5478964,41.265182 44.9045955,42.807991 44.9045955,45.3411622 L44.9045955,45.34032 L44.9045955,45.34032 Z" id="Fill-2" fill="#0A0B09"></path>
                <path d="M59.0015345,35.4449306 C59.0015345,34.560681 59.6537084,34 60.5,34 C61.3455243,34 62,34.560681 62,35.4449306 L62,35.5904508 C62,36.4755564 61.3455243,37.0610614 60.4992327,37.0610614 C59.6529412,37.0610614 59,36.4755564 59,35.5913068 L59,35.4457866 L59.0015345,35.4449306 Z M59.1987212,40.2762032 C59.1987212,39.4424577 59.7626598,38.7782005 60.5,38.7782005 C61.2388747,38.7782005 61.8242967,39.4424577 61.8242967,40.2762032 L61.8242967,50.5259654 C61.8242967,51.3597109 61.2388747,52 60.4992327,52 C59.783376,52 59.1971867,51.3597109 59.1971867,50.5276774 L59.1971867,40.2753472 L59.1987212,40.2762032 L59.1987212,40.2762032 Z" id="Fill-3" fill="#0A0B09"></path>
                <path d="M5,35.4449306 C5,34.560681 5.65250768,34 6.5,34 C7.34672467,34 8,34.560681 8,35.4449306 L8,35.5904508 C8,36.4755564 7.34749232,37.0610614 6.5,37.0610614 C5.65327533,37.0610614 5,36.4755564 5,35.5913068 L5,35.4449306 Z M5.19728762,40.2762032 C5.19728762,39.4424577 5.7622825,38.7782005 6.5,38.7782005 C7.23848516,38.7782005 7.82497441,39.4424577 7.82497441,40.2762032 L7.82497441,50.5259654 C7.82497441,51.3597109 7.23848516,52 6.5,52 C5.78377687,52 5.19728762,51.3597109 5.19728762,50.5276774 L5.19728762,40.2753472 L5.19728762,40.2762032 L5.19728762,40.2762032 Z" id="Fill-4" fill="#0A0B09"></path>
                <path d="M64,45.557646 L64,45.5139997 C64,41.9753579 66.6475506,39 70.276034,39 C72.1701379,39 73.4721326,39.6382237 74.4990466,40.558913 C74.6821649,40.7236159 74.9314315,41.0760801 74.9314315,41.5504244 C74.9314315,42.2808818 74.3627163,42.8482833 73.6552508,42.8482833 C73.3116016,42.8482833 73.0179671,42.7066388 72.8340422,42.5633473 C72.1273834,41.9506525 71.349736,41.5010136 70.2526401,41.5010136 C68.2439865,41.5010136 66.7621003,43.2946282 66.7621003,45.4670594 L66.7621003,45.5139997 C66.7621003,47.7292538 68.2464066,49.501457 70.3679965,49.501457 C71.4618656,49.501457 72.3088882,49.0518181 73.062335,48.3921829 C73.2212526,48.2505385 73.4963332,48.085012 73.8157818,48.085012 C74.4772661,48.085012 75,48.6507665 75,49.3367541 C75,49.7131002 74.862863,50.0202711 74.6152097,50.2327379 C73.5423145,51.2934246 72.2403197,52 70.2324729,52 C66.6483573,52 64.0008067,49.1012289 64.0008067,45.557646" id="Fill-5" fill="#0A0B09"></path>
                <path d="M75,48.1203579 L75,48.0721636 C75,45.3591563 77.0537897,44.0255034 80.0260799,44.0255034 C81.3871231,44.0255034 82.3569682,44.239054 83.3023635,44.5489933 L83.3023635,44.239054 C83.3023635,42.4525407 82.2412388,41.5002876 80.2828036,41.5002876 C79.2216789,41.5002876 78.3431133,41.691403 77.5851671,42.0013423 C77.4221679,42.0462128 77.2819886,42.0719719 77.1450693,42.0719719 C76.4987775,42.0719719 75.9698452,41.5484819 75.9698452,40.8837328 C75.9698452,40.3569191 76.3137734,39.9048897 76.7294214,39.7370406 C77.8826406,39.2883349 79.0603097,39 80.6495518,39 C82.4710676,39 83.8329258,39.4985618 84.6878566,40.4042825 C85.5843521,41.3083413 86,42.6436561 86,44.2864174 L86,50.4768936 C86,51.2604666 85.401793,51.856248 84.6389568,51.856248 C83.8321108,51.856248 83.2803586,51.2862256 83.2803586,50.6430809 L83.2803586,50.1661234 C82.4515077,51.1906679 81.1809291,52 79.3113284,52 C77.0293399,52 75,50.6430809 75,48.119527 M83.3496333,47.2162991 L83.3496333,46.3587728 C82.6340668,46.0712688 81.6886716,45.8577181 80.5802771,45.8577181 C78.7815811,45.8577181 77.7220864,46.6446149 77.7220864,47.9533397 L77.7220864,48.0031959 C77.7220864,49.2138702 78.7587612,49.9043784 80.0977995,49.9043784 C81.9413203,49.9043784 83.3496333,48.811697 83.3496333,47.2171301" id="Fill-6" fill="#0A0B09"></path>
                <path d="M88,40.4928913 C88,39.6754556 88.4958343,39.0243634 89.1450124,39.0243634 C89.7962171,39.0243634 90.310966,39.6754556 90.310966,40.4928913 L90.310966,41.7933954 C90.8473317,40.2055706 91.8410268,39 92.8543121,39 C93.5804999,39 94,39.6032054 94,40.4450045 C94,41.2162337 93.6000901,41.7219853 93.0846656,41.8421223 C91.4411169,42.2033734 90.312317,43.7911981 90.312317,46.8021843 L90.312317,50.5549955 C90.312317,51.3531084 89.7989192,52 89.147039,52 C88.5154245,52 88.001351,51.3732713 88.001351,50.5549955 L88.001351,40.4937314 L88,40.4928913" id="Fill-7" fill="#0A0B09"></path>
                <path d="M101.856687,52 C98.549507,52 96,49.3813898 96,45.5358206 L96,45.4888833 C96,41.9257617 98.3127343,39 101.575614,39 C105.205874,39 107,42.2567936 107,45.1347945 C107,45.9384937 106.439383,46.5058593 105.768782,46.5058593 L98.6144286,46.5058593 C98.8970282,48.534047 100.213026,49.6663077 101.898695,49.6663077 C103.002361,49.6663077 103.866199,49.2397542 104.602486,48.5793374 C104.795723,48.414645 104.969102,48.3199468 105.27156,48.3199468 C105.854326,48.3199468 106.310304,48.8181415 106.310304,49.4769114 C106.310304,49.8293533 106.155256,50.1373282 105.963547,50.3497815 C104.924802,51.365934 103.63019,52 101.855923,52 L101.856687,52 Z M104.449729,44.6168366 C104.278642,42.7755748 103.283433,41.3378096 101.554992,41.3378096 C99.9548674,41.3378096 98.8282877,42.6825236 98.5938064,44.6168366 L104.449729,44.6168366 L104.449729,44.6168366 Z" id="Fill-8" fill="#0A0B09"></path>
                <path d="M11.3118134,37.3989586 C11.3984187,36.5399352 11.9505278,36 12.7774423,36 L12.8640476,36 C13.5035948,36 13.9274613,36.3143727 14.2114269,36.7434915 L18.9997031,44.8621672 L23.8112961,36.7230573 C24.1194113,36.2491404 24.5441106,36 25.1353586,36 L25.2227967,36 C26.0505439,36 26.6051512,36.5580116 26.6884256,37.3989586 C26.7716999,38.2399057 27.9308792,49.9345712 27.9958332,50.6214756 C28.0607872,51.30838 27.3571188,51.9992141 26.5302043,51.9992141 C25.7507562,51.9992141 25.1695011,51.4962177 25.0895577,50.6214756 L24.2176751,41.1454956 L20.1813664,47.9846743 C19.8732512,48.4373711 19.4968511,48.7077316 18.9547349,48.7077316 C18.4334374,48.7077316 18.0570372,48.4373711 17.7497548,47.9846743 L13.7359302,41.1895078 C13.7359302,41.1895078 12.9398273,49.8834856 12.8640476,50.6481973 C12.7857697,51.412123 12.2253332,52 11.423401,52 C10.6223016,52 9.93278982,51.3806857 10.0052385,50.6481973 C10.0768545,49.9172807 11.225208,38.2579821 11.3126461,37.3997446" id="Fill-9" fill="#0A0B09"></path>
                <g id="Group-13">
                    <mask id="mask-2" fill="white">
                        <use xlink:href="#path-1"></use>
                    </mask>
                    <g id="Clip-11"></g>
                    <mask id="mask-4" fill="white">
                        <use xlink:href="#path-3"></use>
                    </mask>
                    <g id="Clip-11-Copy"></g>
                    <path d="M42.4487143,28.4613514 C42.5057143,29.1014595 42.4682571,29.7264865 42.3591429,30.3297297 L113.309486,17.4186486 L109.647643,0.204432432 L42.2858571,27.4877838 C42.3575143,27.8028108 42.4202143,28.1287297 42.4487143,28.4613514" id="Fill-10" fill="#D64B2B" mask="url(#mask-4)"></path>
                    <path d="M30.2482714,26.1924865 L2.57884286,9.41059459 L0,22.9332973 L29.6807143,29.4014054 C29.6106857,28.2619459 29.8191429,27.1677297 30.2482714,26.1924865" id="Fill-12" fill="#D64B2B" mask="url(#mask-4)"></path>
                </g>
                <path d="M33.013366,27.2755777 C33.1636727,28.9276366 34.6293366,30.1406965 36.2757843,29.9868417 C37.9284658,29.8336706 39.140617,28.3730755 38.9868469,26.7223841 C38.8344622,25.0710089 37.3729542,23.8593166 35.7230433,24.0131715 C34.0717471,24.1677101 32.8582106,25.6283053 33.013366,27.2762615" id="Fill-14" fill="#962D2D"></path>
                <path d="M33.013366,27.2755777 C33.1636727,28.9276366 34.6293366,30.1406965 36.2757843,29.9868417 C37.9284658,29.8336706 39.140617,28.3730755 38.9868469,26.7223841 C38.8344622,25.0710089 37.3729542,23.8593166 35.7230433,24.0131715 C34.0717471,24.1677101 32.8582106,25.6283053 33.013366,27.2762615" id="Fill-14-Copy" fill="#962D2D"></path>
            </g>
        </g>
    </g>
</svg>